<svg viewBox="0 0 1280 980" xmlns="http://www.w3.org/2000/svg" font-family="ui-monospace, SFMono-Regular, Menlo, monospace">
  <defs>
    <style>
      .bg{fill:#0d1117;}
      .band{fill:#11161d;stroke:#2b3440;stroke-width:1.2;}
      .card{fill:#161b22;stroke:#2b3440;stroke-width:1;}
      .alt{fill:#161b22;stroke:#3a4555;stroke-width:1;stroke-dasharray:4 4;}
      .title{fill:#e6edf3;font-size:27px;font-weight:700;letter-spacing:1px;}
      .sub{fill:#8b949e;font-size:13px;}
      .L{fill:#6e7681;font-size:11px;letter-spacing:2px;font-weight:700;}
      .name{fill:#e6edf3;font-size:13px;font-weight:700;}
      .spec{fill:#8b949e;font-size:10.5px;}
      .node{fill:#6e7681;font-size:9.5px;letter-spacing:.5px;}
      .casc{fill:#15111f;stroke:#a78bfa;stroke-width:1.6;}
      .cn{fill:#c4b5fd;font-size:12px;font-weight:700;}
      .ai{stroke:#34d399;} .dev{stroke:#3b82f6;} .ops{stroke:#f59e0b;} .edge{stroke:#2dd4bf;}
      .flow{stroke:#a78bfa;stroke-width:2;fill:none;}
    </style>
    <marker id="v" markerWidth="9" markerHeight="9" refX="4" refY="7" orient="auto"><path d="M0,0 L7,0 L3.5,7 Z" fill="#a78bfa"/></marker>
  </defs>
  <rect class="bg" x="0" y="0" width="1280" height="980"/>
  <text class="title" x="40" y="52">Home Lab — layered private cloud</text>
  <text class="sub" x="42" y="74">IaaS substrate → platform (k8s) → workloads · everything declarative (CASC) · built on the hardware at hand</text>

  <!-- CASC right rail -->
  <g transform="translate(1030,108)">
    <rect class="casc" x="0" y="0" width="210" height="712" rx="12"/>
    <rect x="0" y="0" width="6" height="712" rx="3" fill="#a78bfa"/>
    <text class="cn" x="18" y="30">CASC pipeline</text>
    <text class="spec" x="18" y="50">declarative, all layers</text>
    <g transform="translate(18,72)">
      <rect class="card" x="0" y="0" width="172" height="58" rx="8"/><text class="name" x="12" y="24">Git (GitLab)</text><text class="spec" x="12" y="44">SCM · CI · registry</text>
    </g>
    <line x1="104" y1="132" x2="104" y2="156" class="flow" marker-end="url(#v)"/>
    <g transform="translate(18,158)">
      <rect class="card" x="0" y="0" width="172" height="58" rx="8"/><text class="name" x="12" y="24">OpenTofu</text><text class="spec" x="12" y="44">provision IaaS (VMs/net)</text>
    </g>
    <line x1="104" y1="218" x2="104" y2="242" class="flow" marker-end="url(#v)"/>
    <g transform="translate(18,244)">
      <rect class="card" x="0" y="0" width="172" height="58" rx="8"/><text class="name" x="12" y="24">Ansible</text><text class="spec" x="12" y="44">host / OS config</text>
    </g>
    <line x1="104" y1="304" x2="104" y2="328" class="flow" marker-end="url(#v)"/>
    <g transform="translate(18,330)">
      <rect class="card" x="0" y="0" width="172" height="58" rx="8"/><text class="name" x="12" y="24">Argo CD</text><text class="spec" x="12" y="44">in-cluster GitOps</text>
    </g>
    <text class="spec" x="18" y="430">Policy: Kyverno / OPA</text>
    <text class="spec" x="18" y="450">Secrets: External Secrets</text>
    <text class="spec" x="18" y="470">+ Vault</text>
    <text class="L" x="18" y="690">ONE SOURCE</text>
    <text class="L" x="18" y="706">OF TRUTH: GIT</text>
  </g>

  <!-- L3 Workloads -->
  <g transform="translate(40,108)">
    <rect class="band" x="0" y="0" width="970" height="168" rx="12"/>
    <text class="L" x="16" y="24">L3 · WORKLOADS</text>
    <g transform="translate(16,38)"><rect class="card ai" x="0" y="0" width="228" height="116" rx="9"/>
      <text class="name" x="12" y="24">AI research</text>
      <text class="spec" x="12" y="44">JupyterHub · MLflow · DVC</text>
      <text class="spec" x="12" y="61">vLLM/Ollama · RKLLama (NPU)</text>
      <text class="spec" x="12" y="78">OpenVINO (iGPU) · LiteLLM</text>
      <text class="spec" x="12" y="95">Qdrant (vectors) · Label Studio</text>
      <text class="node" x="12" y="110">H4 · OPi 5 Pro ×2 · N150 ×2</text></g>
    <g transform="translate(256,38)"><rect class="card dev" x="0" y="0" width="228" height="116" rx="9"/>
      <text class="name" x="12" y="24">Software dev</text>
      <text class="spec" x="12" y="44">GitLab CI · multi-arch buildx</text>
      <text class="spec" x="12" y="61">Harbor/registry · Renovate</text>
      <text class="spec" x="12" y="78">Coder / devcontainers</text>
      <text class="spec" x="12" y="95">Claude Code (agentic)</text>
      <text class="node" x="12" y="110">OPi 5 Pro · N150 runners</text></g>
    <g transform="translate(496,38)"><rect class="card ops" x="0" y="0" width="228" height="116" rx="9"/>
      <text class="name" x="12" y="24">DevOps playground</text>
      <text class="spec" x="12" y="44">Argo · Helm · Kustomize</text>
      <text class="spec" x="12" y="61">Linkerd · ingress · cert-mgr</text>
      <text class="spec" x="12" y="78">throwaway sandbox cluster</text>
      <text class="spec" x="12" y="95">break / rebuild from Git</text>
      <text class="node" x="12" y="110">IaaS VMs on N150 ×2</text></g>
    <g transform="translate(736,38)"><rect class="card edge" x="0" y="0" width="218" height="116" rx="9"/>
      <text class="name" x="12" y="24">Edge AI</text>
      <text class="spec" x="12" y="44">M5Stack framework</text>
      <text class="spec" x="12" y="61">3-tier escalation router</text>
      <text class="spec" x="12" y="78">→ local NPU / Claude API /</text>
      <text class="spec" x="12" y="95">Claude Code (Pi orch.)</text>
      <text class="node" x="12" y="110">M5Stack · OPi orchestrator</text></g>
  </g>

  <!-- L2 Platform -->
  <g transform="translate(40,290)">
    <rect class="band" x="0" y="0" width="970" height="128" rx="12"/>
    <text class="L" x="16" y="24">L2 · PLATFORM / CaaS — Kubernetes, GitOps-managed</text>
    <g transform="translate(16,38)"><rect class="card dev" x="0" y="0" width="465" height="74" rx="9"/>
      <text class="name" x="12" y="24">Platform k8s (k3s/OpenShift) — in IaaS VMs</text>
      <text class="spec" x="12" y="44">apps, CI/CD targets, the devops playground · Argo CD reconciles from Git</text>
      <text class="node" x="12" y="62">VMs on the Proxmox cluster (OpenTofu → Proxmox)</text></g>
    <g transform="translate(496,38)"><rect class="card ai" x="0" y="0" width="458" height="74" rx="9"/>
      <text class="name" x="12" y="24">Bare-metal ARM k3s — AI / NPU tier</text>
      <text class="spec" x="12" y="44">RKLLama + LiteLLM + gateway; NPU drivers need the metal</text>
      <text class="node" x="12" y="62">OPi 5 Pro ×2 (RK3588S, 6 TOPS each)</text></g>
  </g>

  <!-- L1 IaaS -->
  <g transform="translate(40,440)">
    <rect class="band" x="0" y="0" width="970" height="156" rx="12"/>
    <text class="L" x="16" y="24">L1 · IaaS SUBSTRATE — Proxmox VE (x86 cluster)</text>
    <g transform="translate(16,38)"><rect class="card" x="0" y="0" width="300" height="102" rx="9"/>
      <text class="name" x="12" y="24">Proxmox VE cluster (3× N150)</text>
      <text class="spec" x="12" y="44">KVM + LXC · quorum 2/3 · live migrate</text>
      <text class="spec" x="12" y="61">OpenTofu (bpg) + cloud-init</text>
      <text class="spec" x="12" y="78">H4 exports NFS shared storage (not a node)</text>
      <text class="node" x="12" y="95">N150 ×3 (incl. TV/browse VM)</text></g>
    <g transform="translate(328,38)"><rect class="card" x="0" y="0" width="300" height="102" rx="9"/>
      <text class="name" x="12" y="24">ARM stays bare-metal</text>
      <text class="spec" x="12" y="44">Proxmox is officially x86-only; the</text>
      <text class="spec" x="12" y="61">ARM port (Proxmox-Port) is unofficial.</text>
      <text class="spec" x="12" y="78">OPis serve AI/NPU better on the metal.</text>
      <text class="node" x="12" y="95">OPi 5 Pro ×2 → L2 bare-metal k3s</text></g>
    <g transform="translate(640,38)"><rect class="alt" x="0" y="0" width="314" height="102" rx="9"/>
      <text class="name" x="12" y="24" fill="#c9d1d9">Want to learn OpenStack?</text>
      <text class="spec" x="12" y="44">Run it nested as a VM on Proxmox</text>
      <text class="spec" x="12" y="61">(Sunbeam), or OpenNebula ✓</text>
      <text class="spec" x="12" y="78">for a fuller IaaS feature set.</text>
      <text class="node" x="12" y="95">optional learning track</text></g>
  </g>

  <!-- L0 Foundation -->
  <g transform="translate(40,620)">
    <rect class="band" x="0" y="0" width="970" height="200" rx="12"/>
    <text class="L" x="16" y="24">L0 · FOUNDATION — shared services (cross-cutting)</text>
    <g transform="translate(16,38)"><rect class="card" x="0" y="0" width="150" height="146" rx="9"/>
      <text class="name" x="12" y="24">Network</text><text class="spec" x="12" y="44">10.136.151.0/24</text>
      <text class="spec" x="12" y="62">DNS (needs a host)</text><text class="spec" x="12" y="80">VLANs later</text>
      <text class="node" x="12" y="138">RPi / dnsmasq</text></g>
    <g transform="translate(174,38)"><rect class="card" x="0" y="0" width="150" height="146" rx="9"/>
      <text class="name" x="12" y="24">Identity</text><text class="spec" x="12" y="44">OpenLDAP ✓</text>
      <text class="spec" x="12" y="62">+ Keycloak/Authentik</text><text class="spec" x="12" y="80">SSO for all UIs</text>
      <text class="node" x="12" y="138">RPi 4B · OPi</text></g>
    <g transform="translate(332,38)"><rect class="card" x="0" y="0" width="150" height="146" rx="9"/>
      <text class="name" x="12" y="24">Secrets</text><text class="spec" x="12" y="44">Vault ✓</text>
      <text class="spec" x="12" y="62">External Secrets</text><text class="spec" x="12" y="80">PKI / dynamic creds</text>
      <text class="node" x="12" y="138">RPi 5</text></g>
    <g transform="translate(490,38)"><rect class="card" x="0" y="0" width="180" height="146" rx="9"/>
      <text class="name" x="12" y="24">Storage / data</text><text class="spec" x="12" y="44">NAS: NFS + SMB</text>
      <text class="spec" x="12" y="62">MinIO (S3): models,</text><text class="spec" x="12" y="80">datasets, registry, Glance</text>
      <text class="spec" x="12" y="98">restic 8TB→6TB backups</text>
      <text class="node" x="12" y="138">Odroid-H4 (4TB NVMe + SATA)</text></g>
    <g transform="translate(678,38)"><rect class="card" x="0" y="0" width="276" height="146" rx="9"/>
      <text class="name" x="12" y="24">Observability</text>
      <text class="spec" x="12" y="44">Prometheus ✓ · Grafana ✓</text>
      <text class="spec" x="12" y="62">Loki (logs) · Tempo/OTel ✓ (traces)</text>
      <text class="spec" x="12" y="80">Alertmanager · route_taken from M5Stack</text>
      <text class="spec" x="12" y="98">one pane over IaaS + k8s + edge</text>
      <text class="node" x="12" y="138">Zero 2 W set · OPi</text></g>
  </g>

  <!-- spanning arrow CASC -->
  <line x1="1030" y1="464" x2="1014" y2="464" class="flow" marker-end="url(#v)"/>
  <text class="sub" x="40" y="858">Loop: commit to Git → OpenTofu builds VMs on Proxmox → Ansible configures → Argo deploys k8s + apps → observability + the M5Stack router watch it.</text>
  <text class="sub" x="40" y="884">Honest calls: Proxmox = 3× N150 (quorum survives 1 down) · the H4 stays a dedicated NAS/AI box and exports NFS — no hypervisor load on it · OPis bare-metal · OpenStack optional/nested.</text>
  <text class="L" x="40" y="922">✓ = already running in your lab · others are the proposed additions · phase it: foundation → IaaS → platform → AI → edge</text>
</svg>
