<svg viewBox="0 0 1280 1554" xmlns="http://www.w3.org/2000/svg" font-family="ui-monospace, SFMono-Regular, Menlo, monospace">
<defs><style>
 .bg{fill:#0d1117;} .panel{fill:#11161d;stroke:#2b3440;stroke-width:1.2;}
 .title{fill:#e6edf3;font-size:27px;font-weight:700;letter-spacing:1px;}
 .sub{fill:#8b949e;font-size:13px;} .gh{fill:#e6edf3;font-size:14px;font-weight:700;}
 .chip{fill:#161b22;stroke:#262d36;stroke-width:1;} .hn{fill:#e6edf3;font-size:11.5px;font-weight:700;}
 .ip{fill:#6e7681;font-size:10px;} .sv{fill:#9aa5b1;font-size:10.5px;} .lg{fill:#8b949e;font-size:11px;}
</style></defs>
<rect class="bg" x="0" y="0" width="1280" height="1554"/>
<text class="title" x="40" y="48">Service Map — grouped services &amp; their hosts</text>
<text class="sub" x="42" y="70">colour = hardware class · a host can appear under several services · IPs marked TBD are unassigned</text>
<g transform="translate(40,100)">
<rect class="panel" x="0" y="0" width="389" height="330" rx="12"/>
<text class="gh" x="16" y="30">Identity &amp; Secrets</text>
<g transform="translate(16,48)"><rect class="chip" x="0" y="0" width="357" height="48" rx="8"/>
<rect x="0" y="0" width="5" height="48" rx="2" fill="#3b82f6"/>
<text class="hn" x="14" y="19">RPi 5</text>
<text class="ip" x="343" y="19" text-anchor="end">10.136.151.67</text>
<text class="sv" x="14" y="37">Vault — secrets / PKI</text></g>
<g transform="translate(16,104)"><rect class="chip" x="0" y="0" width="357" height="48" rx="8"/>
<rect x="0" y="0" width="5" height="48" rx="2" fill="#3b82f6"/>
<text class="hn" x="14" y="19">RPi 4B</text>
<text class="ip" x="343" y="19" text-anchor="end">10.136.151.99</text>
<text class="sv" x="14" y="37">OpenLDAP — directory</text></g>
<g transform="translate(16,160)"><rect class="chip" x="0" y="0" width="357" height="48" rx="8"/>
<rect x="0" y="0" width="5" height="48" rx="2" fill="#f59e0b"/>
<text class="hn" x="14" y="19">(planned)</text>
<text class="ip" x="343" y="19" text-anchor="end">—</text>
<text class="sv" x="14" y="37">SSO: Keycloak / Authentik</text></g>
</g>
<g transform="translate(445,100)">
<rect class="panel" x="0" y="0" width="389" height="330" rx="12"/>
<text class="gh" x="16" y="30">Storage &amp; Data</text>
<g transform="translate(16,48)"><rect class="chip" x="0" y="0" width="357" height="48" rx="8"/>
<rect x="0" y="0" width="5" height="48" rx="2" fill="#ff6b6b"/>
<text class="hn" x="14" y="19">Odroid-H4</text>
<text class="ip" x="343" y="19" text-anchor="end">10.136.151.64</text>
<text class="sv" x="14" y="37">NAS (NFS/SMB) · MinIO S3</text></g>
<g transform="translate(16,104)"><rect class="chip" x="0" y="0" width="357" height="48" rx="8"/>
<rect x="0" y="0" width="5" height="48" rx="2" fill="#ff6b6b"/>
<text class="hn" x="14" y="19">Odroid-H4</text>
<text class="ip" x="343" y="19" text-anchor="end">10.136.151.64</text>
<text class="sv" x="14" y="37">restic backups (8TB→6TB)</text></g>
<g transform="translate(16,160)"><rect class="chip" x="0" y="0" width="357" height="48" rx="8"/>
<rect x="0" y="0" width="5" height="48" rx="2" fill="#ff6b6b"/>
<text class="hn" x="14" y="19">Odroid-H4</text>
<text class="ip" x="343" y="19" text-anchor="end">10.136.151.64</text>
<text class="sv" x="14" y="37">shared NFS → Proxmox VMs</text></g>
<g transform="translate(16,216)"><rect class="chip" x="0" y="0" width="357" height="48" rx="8"/>
<rect x="0" y="0" width="5" height="48" rx="2" fill="#f59e0b"/>
<text class="hn" x="14" y="19">offsite</text>
<text class="ip" x="343" y="19" text-anchor="end">cloud</text>
<text class="sv" x="14" y="37">restic copy (B2/rclone, 3-2-1)</text></g>
</g>
<g transform="translate(850,100)">
<rect class="panel" x="0" y="0" width="389" height="330" rx="12"/>
<text class="gh" x="16" y="30">DNS  ·  Pi-hole</text>
<g transform="translate(16,48)"><rect class="chip" x="0" y="0" width="357" height="48" rx="8"/>
<rect x="0" y="0" width="5" height="48" rx="2" fill="#3b82f6"/>
<text class="hn" x="14" y="19">RPi 3B #2</text>
<text class="ip" x="343" y="19" text-anchor="end">10.136.151.59</text>
<text class="sv" x="14" y="37">Pi-hole — primary (wired)</text></g>
<g transform="translate(16,104)"><rect class="chip" x="0" y="0" width="357" height="48" rx="8"/>
<rect x="0" y="0" width="5" height="48" rx="2" fill="#2dd4bf"/>
<text class="hn" x="14" y="19">OPi Zero 2W</text>
<text class="ip" x="343" y="19" text-anchor="end">TBD</text>
<text class="sv" x="14" y="37">secondary — same config</text></g>
</g>
<g transform="translate(40,446)">
<rect class="panel" x="0" y="0" width="389" height="330" rx="12"/>
<text class="gh" x="16" y="30">IaaS · Proxmox cluster</text>
<g transform="translate(16,48)"><rect class="chip" x="0" y="0" width="357" height="48" rx="8"/>
<rect x="0" y="0" width="5" height="48" rx="2" fill="#ff6b6b"/>
<text class="hn" x="14" y="19">N150 #1</text>
<text class="ip" x="343" y="19" text-anchor="end">10.136.151.71</text>
<text class="sv" x="14" y="37">Proxmox VE node</text></g>
<g transform="translate(16,104)"><rect class="chip" x="0" y="0" width="357" height="48" rx="8"/>
<rect x="0" y="0" width="5" height="48" rx="2" fill="#ff6b6b"/>
<text class="hn" x="14" y="19">N150 #2</text>
<text class="ip" x="343" y="19" text-anchor="end">10.136.151.72</text>
<text class="sv" x="14" y="37">Proxmox VE node</text></g>
<g transform="translate(16,160)"><rect class="chip" x="0" y="0" width="357" height="48" rx="8"/>
<rect x="0" y="0" width="5" height="48" rx="2" fill="#ff6b6b"/>
<text class="hn" x="14" y="19">N150 #3</text>
<text class="ip" x="343" y="19" text-anchor="end">TBD</text>
<text class="sv" x="14" y="37">Proxmox node + TV/browse VM</text></g>
</g>
<g transform="translate(445,446)">
<rect class="panel" x="0" y="0" width="389" height="330" rx="12"/>
<text class="gh" x="16" y="30">Platform · k8s / GitOps</text>
<g transform="translate(16,48)"><rect class="chip" x="0" y="0" width="357" height="48" rx="8"/>
<rect x="0" y="0" width="5" height="48" rx="2" fill="#34d399"/>
<text class="hn" x="14" y="19">OPi 5 Pro #1</text>
<text class="ip" x="343" y="19" text-anchor="end">10.136.151.83</text>
<text class="sv" x="14" y="37">bare-metal k3s server</text></g>
<g transform="translate(16,104)"><rect class="chip" x="0" y="0" width="357" height="48" rx="8"/>
<rect x="0" y="0" width="5" height="48" rx="2" fill="#34d399"/>
<text class="hn" x="14" y="19">OPi 5 Pro #2</text>
<text class="ip" x="343" y="19" text-anchor="end">10.136.151.97</text>
<text class="sv" x="14" y="37">bare-metal k3s server</text></g>
<g transform="translate(16,160)"><rect class="chip" x="0" y="0" width="357" height="48" rx="8"/>
<rect x="0" y="0" width="5" height="48" rx="2" fill="#2dd4bf"/>
<text class="hn" x="14" y="19">OPi Zero 2W ×4</text>
<text class="ip" x="343" y="19" text-anchor="end">TBD</text>
<text class="sv" x="14" y="37">k3s agent pool (stateless)</text></g>
<g transform="translate(16,216)"><rect class="chip" x="0" y="0" width="357" height="48" rx="8"/>
<rect x="0" y="0" width="5" height="48" rx="2" fill="#f59e0b"/>
<text class="hn" x="14" y="19">Proxmox VMs</text>
<text class="ip" x="343" y="19" text-anchor="end">on N150s</text>
<text class="sv" x="14" y="37">platform k3s + Argo CD</text></g>
</g>
<g transform="translate(850,446)">
<rect class="panel" x="0" y="0" width="389" height="330" rx="12"/>
<text class="gh" x="16" y="30">AI / Inference</text>
<g transform="translate(16,48)"><rect class="chip" x="0" y="0" width="357" height="48" rx="8"/>
<rect x="0" y="0" width="5" height="48" rx="2" fill="#34d399"/>
<text class="hn" x="14" y="19">OPi 5 Pro #1</text>
<text class="ip" x="343" y="19" text-anchor="end">10.136.151.83</text>
<text class="sv" x="14" y="37">RKLLama NPU + Claude Code orch.</text></g>
<g transform="translate(16,104)"><rect class="chip" x="0" y="0" width="357" height="48" rx="8"/>
<rect x="0" y="0" width="5" height="48" rx="2" fill="#34d399"/>
<text class="hn" x="14" y="19">OPi 5 Pro #2</text>
<text class="ip" x="343" y="19" text-anchor="end">10.136.151.97</text>
<text class="sv" x="14" y="37">RKLLama NPU (LLM serving)</text></g>
<g transform="translate(16,160)"><rect class="chip" x="0" y="0" width="357" height="48" rx="8"/>
<rect x="0" y="0" width="5" height="48" rx="2" fill="#ff6b6b"/>
<text class="hn" x="14" y="19">H4 + N150s</text>
<text class="ip" x="343" y="19" text-anchor="end">iGPU</text>
<text class="sv" x="14" y="37">OpenVINO — embeddings/STT/vision</text></g>
<g transform="translate(16,216)"><rect class="chip" x="0" y="0" width="357" height="48" rx="8"/>
<rect x="0" y="0" width="5" height="48" rx="2" fill="#f59e0b"/>
<text class="hn" x="14" y="19">in-cluster</text>
<text class="ip" x="343" y="19" text-anchor="end">k3s</text>
<text class="sv" x="14" y="37">LiteLLM gateway + m5stack-adapter</text></g>
<g transform="translate(16,272)"><rect class="chip" x="0" y="0" width="357" height="48" rx="8"/>
<rect x="0" y="0" width="5" height="48" rx="2" fill="#a78bfa"/>
<text class="hn" x="14" y="19">M5Stack</text>
<text class="ip" x="343" y="19" text-anchor="end">USB/edge</text>
<text class="sv" x="14" y="37">escalation router (front-end)</text></g>
</g>
<g transform="translate(40,792)">
<rect class="panel" x="0" y="0" width="389" height="330" rx="12"/>
<text class="gh" x="16" y="30">Software Dev</text>
<g transform="translate(16,48)"><rect class="chip" x="0" y="0" width="357" height="48" rx="8"/>
<rect x="0" y="0" width="5" height="48" rx="2" fill="#ff6b6b"/>
<text class="hn" x="14" y="19">GitLab VM</text>
<text class="ip" x="343" y="19" text-anchor="end">Proxmox/n150</text>
<text class="sv" x="14" y="37">GitLab — SCM / CI / registry</text></g>
<g transform="translate(16,104)"><rect class="chip" x="0" y="0" width="357" height="48" rx="8"/>
<rect x="0" y="0" width="5" height="48" rx="2" fill="#f59e0b"/>
<text class="hn" x="14" y="19">in-cluster</text>
<text class="ip" x="343" y="19" text-anchor="end">k3s</text>
<text class="sv" x="14" y="37">CI runners · multi-arch buildx</text></g>
</g>
<g transform="translate(445,792)">
<rect class="panel" x="0" y="0" width="389" height="330" rx="12"/>
<text class="gh" x="16" y="30">Provisioning (CASC)</text>
<g transform="translate(16,48)"><rect class="chip" x="0" y="0" width="357" height="48" rx="8"/>
<rect x="0" y="0" width="5" height="48" rx="2" fill="#f59e0b"/>
<text class="hn" x="14" y="19">OpenTofu + cloud-init</text>
<text class="ip" x="343" y="19" text-anchor="end">CASC</text>
<text class="sv" x="14" y="37">→ Proxmox VMs</text></g>
<g transform="translate(16,104)"><rect class="chip" x="0" y="0" width="357" height="48" rx="8"/>
<rect x="0" y="0" width="5" height="48" rx="2" fill="#2dd4bf"/>
<text class="hn" x="14" y="19">rpi-imager / cloud-init</text>
<text class="ip" x="343" y="19" text-anchor="end">first-boot</text>
<text class="sv" x="14" y="37">→ SD-card SBCs (SSH-ready)</text></g>
<g transform="translate(16,160)"><rect class="chip" x="0" y="0" width="357" height="48" rx="8"/>
<rect x="0" y="0" width="5" height="48" rx="2" fill="#f59e0b"/>
<text class="hn" x="14" y="19">Ansible</text>
<text class="ip" x="343" y="19" text-anchor="end">CASC</text>
<text class="sv" x="14" y="37">host config (everything w/ an OS)</text></g>
<g transform="translate(16,216)"><rect class="chip" x="0" y="0" width="357" height="48" rx="8"/>
<rect x="0" y="0" width="5" height="48" rx="2" fill="#a78bfa"/>
<text class="hn" x="14" y="19">PlatformIO / OTA</text>
<text class="ip" x="343" y="19" text-anchor="end">firmware</text>
<text class="sv" x="14" y="37">→ microcontrollers (ESPHome opt.)</text></g>
<g transform="translate(16,272)"><rect class="chip" x="0" y="0" width="357" height="48" rx="8"/>
<rect x="0" y="0" width="5" height="48" rx="2" fill="#ff6b6b"/>
<text class="hn" x="14" y="19">netboot.xyz</text>
<text class="ip" x="343" y="19" text-anchor="end">optional</text>
<text class="sv" x="14" y="37">x86 PXE menu (if ever needed)</text></g>
</g>
<g transform="translate(850,792)">
<rect class="panel" x="0" y="0" width="389" height="330" rx="12"/>
<text class="gh" x="16" y="30">Observability</text>
<g transform="translate(16,48)"><rect class="chip" x="0" y="0" width="357" height="48" rx="8"/>
<rect x="0" y="0" width="5" height="48" rx="2" fill="#34d399"/>
<text class="hn" x="14" y="19">OPi 5 Pro #2</text>
<text class="ip" x="343" y="19" text-anchor="end">10.136.151.97</text>
<text class="sv" x="14" y="37">OpenTelemetry collector</text></g>
<g transform="translate(16,104)"><rect class="chip" x="0" y="0" width="357" height="48" rx="8"/>
<rect x="0" y="0" width="5" height="48" rx="2" fill="#f59e0b"/>
<text class="hn" x="14" y="19">in-cluster</text>
<text class="ip" x="343" y="19" text-anchor="end">k3s</text>
<text class="sv" x="14" y="37">Prometheus · Grafana · Loki · Tempo</text></g>
<g transform="translate(16,160)"><rect class="chip" x="0" y="0" width="357" height="48" rx="8"/>
<rect x="0" y="0" width="5" height="48" rx="2" fill="#2dd4bf"/>
<text class="hn" x="14" y="19">OPi Zero 2W</text>
<text class="ip" x="343" y="19" text-anchor="end">TBD</text>
<text class="sv" x="14" y="37">node / metric exporters</text></g>
</g>
<g transform="translate(40,1138)">
<rect class="panel" x="0" y="0" width="389" height="330" rx="12"/>
<text class="gh" x="16" y="30">Single-purpose &amp; Edge</text>
<g transform="translate(16,48)"><rect class="chip" x="0" y="0" width="357" height="48" rx="8"/>
<rect x="0" y="0" width="5" height="48" rx="2" fill="#3b82f6"/>
<text class="hn" x="14" y="19">Odroid-XU3 ⚠</text>
<text class="ip" x="343" y="19" text-anchor="end">10.136.151.51</text>
<text class="sv" x="14" y="37">build agent (flaky)</text></g>
<g transform="translate(16,104)"><rect class="chip" x="0" y="0" width="357" height="48" rx="8"/>
<rect x="0" y="0" width="5" height="48" rx="2" fill="#2dd4bf"/>
<text class="hn" x="14" y="19">OPi Zero 2W</text>
<text class="ip" x="343" y="19" text-anchor="end">TBD</text>
<text class="sv" x="14" y="37">Mosquitto MQTT broker</text></g>
<g transform="translate(16,160)"><rect class="chip" x="0" y="0" width="357" height="48" rx="8"/>
<rect x="0" y="0" width="5" height="48" rx="2" fill="#8b949e"/>
<text class="hn" x="14" y="19">RPi 3B #1 ⚠</text>
<text class="ip" x="343" y="19" text-anchor="end">10.136.151.73</text>
<text class="sv" x="14" y="37">power fault — retire / RMA</text></g>
<g transform="translate(16,216)"><rect class="chip" x="0" y="0" width="357" height="48" rx="8"/>
<rect x="0" y="0" width="5" height="48" rx="2" fill="#8b949e"/>
<text class="hn" x="14" y="19">RPi Zero W ×3</text>
<text class="ip" x="343" y="19" text-anchor="end">TBD</text>
<text class="sv" x="14" y="37">ultra-light / retire</text></g>
</g>
<g transform="translate(40,1486)">
<rect x="0" y="0" width="14" height="14" rx="3" fill="#ff6b6b"/>
<text class="lg" x="20" y="12">x86 (Proxmox)</text>
<rect x="135" y="0" width="14" height="14" rx="3" fill="#34d399"/>
<text class="lg" x="155" y="12">ARM AI (OPi 5 Pro)</text>
<rect x="305" y="0" width="14" height="14" rx="3" fill="#2dd4bf"/>
<text class="lg" x="325" y="12">ARM agents (Zero 2W)</text>
<rect x="489" y="0" width="14" height="14" rx="3" fill="#3b82f6"/>
<text class="lg" x="509" y="12">ARM infra (RPi)</text>
<rect x="638" y="0" width="14" height="14" rx="3" fill="#a78bfa"/>
<text class="lg" x="658" y="12">edge (M5Stack)</text>
<rect x="780" y="0" width="14" height="14" rx="3" fill="#f59e0b"/>
<text class="lg" x="800" y="12">in-cluster / logical</text>
<rect x="964" y="0" width="14" height="14" rx="3" fill="#8b949e"/>
<text class="lg" x="984" y="12">micro / retire</text>
</g></svg>