<svg viewBox="0 0 1240 700" xmlns="http://www.w3.org/2000/svg" font-family="ui-monospace, SFMono-Regular, Menlo, monospace">
  <defs>
    <style>
      .bg{fill:#0d1117;} .title{fill:#e6edf3;font-size:26px;font-weight:700;letter-spacing:1px;}
      .sub{fill:#8b949e;font-size:13px;} .name{fill:#e6edf3;font-size:15px;font-weight:700;}
      .row{fill:#c9d1d9;font-size:12.5px;} .spec{fill:#8b949e;font-size:11.5px;}
      .tag{fill:#6e7681;font-size:10.5px;letter-spacing:1px;font-weight:700;}
      .flow{fill:#c9d1d9;font-size:11px;font-weight:700;} .disk{fill:#0d1117;stroke:#3b82f6;stroke-width:1.4;}
      .note{fill:#9aa5b1;font-size:11.5px;}
    </style>
    <marker id="arrow" markerWidth="10" markerHeight="10" refX="8" refY="3" orient="auto">
      <path d="M0,0 L8,3 L0,6 Z" fill="#8b949e"/></marker>
  </defs>
  <rect class="bg" x="0" y="0" width="1240" height="700"/>
  <text class="title" x="40" y="50">Storage Tiers &amp; Recovery Model</text>
  <text class="sub" x="42" y="74">Fast single NVMe for live data · two RAID 1 mirrors for cold copies · Git for desired state</text>

  <!-- single failure domain -->
  <rect x="60" y="104" width="840" height="476" rx="16" fill="none" stroke="#6e2b2b" stroke-width="1.4" stroke-dasharray="6 6"/>
  <text class="tag" x="78" y="128" fill="#ff8a8a">SINGLE FAILURE DOMAIN — one chassis, one PSU, one room</text>

  <!-- HOT · NVMe -->
  <g transform="translate(84,150)">
    <rect x="0" y="0" width="244" height="306" rx="12" fill="#1f1605" stroke="#f59e0b" stroke-width="1.6"/>
    <rect x="0" y="0" width="6" height="306" rx="3" fill="#f59e0b"/>
    <text class="name" x="20" y="32" fill="#fbbf24">HOT · NVMe</text>
    <text class="spec" x="20" y="52">4 TB · single disk (US75)</text>
    <line x1="20" y1="66" x2="224" y2="66" stroke="#3a2e10"/>
    <text class="row" x="20" y="92">▸ etcd (low-latency fsync)</text>
    <text class="row" x="20" y="116">▸ live NAS data (lv_nas)</text>
    <text class="row" x="20" y="140">▸ k8s PVs (LVMS free PE)</text>
    <line x1="20" y1="158" x2="224" y2="158" stroke="#3a2e10"/>
    <text class="tag" x="20" y="182" fill="#ff8a8a">UNMIRRORED</text>
    <text class="spec" x="20" y="202">single point of failure for</text>
    <text class="spec" x="20" y="219">LIVE data — mitigated by</text>
    <text class="spec" x="20" y="236">backups to the cold mirrors</text>
    <text class="spec" x="20" y="253">+ offsite (below).</text>
    <text class="tag" x="20" y="285">BOOT on eMMC 256 GB →</text>
    <text class="spec" x="20" y="300">frees the whole NVMe</text>
  </g>

  <!-- COLD primary · 8 TB RAID1 (degraded) -->
  <g transform="translate(344,150)">
    <rect x="0" y="0" width="244" height="306" rx="12" fill="#0c1830" stroke="#3b82f6" stroke-width="1.6"/>
    <rect x="0" y="0" width="6" height="306" rx="3" fill="#3b82f6"/>
    <text class="name" x="20" y="32" fill="#7eb3ff">COLD · 8 TB RAID 1</text>
    <text class="spec" x="20" y="52">md0 · primary</text>
    <!-- mirror disks -->
    <rect class="disk" x="20" y="66" width="92" height="40" rx="6"/>
    <text class="spec" x="36" y="90" fill="#c9d1d9">8 TB</text>
    <rect class="disk" x="132" y="66" width="92" height="40" rx="6"/>
    <text class="spec" x="148" y="90" fill="#c9d1d9">8 TB</text>
    <text class="flow" x="116" y="91" fill="#7eb3ff">⇄</text>
    <line x1="20" y1="120" x2="224" y2="120" stroke="#13294d"/>
    <text class="row" x="20" y="146">▸ restic repo (primary)</text>
    <text class="row" x="20" y="170">▸ etcd snapshots</text>
    <text class="row" x="20" y="194">▸ bulk NAS shares</text>
    <line x1="20" y1="212" x2="224" y2="212" stroke="#13294d"/>
    <rect x="20" y="226" width="204" height="62" rx="8" fill="#2a0d0d" stroke="#ff6b6b" stroke-width="1.2"/>
    <text class="tag" x="32" y="248" fill="#ff8a8a">⚠ CRC-DEGRADED</text>
    <text class="spec" x="32" y="266" fill="#ffb3b3">SMART 199 from factory —</text>
    <text class="spec" x="32" y="281" fill="#ffb3b3">link/controller, not media</text>
  </g>

  <!-- COLD secondary · 6 TB RAID1 -->
  <g transform="translate(604,150)">
    <rect x="0" y="0" width="244" height="306" rx="12" fill="#0c1830" stroke="#3b82f6" stroke-width="1.6"/>
    <rect x="0" y="0" width="6" height="306" rx="3" fill="#3b82f6"/>
    <text class="name" x="20" y="32" fill="#7eb3ff">COLD · 6 TB RAID 1</text>
    <text class="spec" x="20" y="52">md1 · secondary</text>
    <rect class="disk" x="20" y="66" width="92" height="40" rx="6" stroke="#3b82f6"/>
    <text class="spec" x="36" y="90" fill="#c9d1d9">6 TB</text>
    <rect class="disk" x="132" y="66" width="92" height="40" rx="6" stroke="#3b82f6"/>
    <text class="spec" x="148" y="90" fill="#c9d1d9">6 TB</text>
    <text class="flow" x="116" y="91" fill="#7eb3ff">⇄</text>
    <line x1="20" y1="120" x2="224" y2="120" stroke="#13294d"/>
    <text class="row" x="20" y="146">▸ restic copy (2nd copy)</text>
    <text class="row" x="20" y="170">▸ archive / cold shares</text>
    <line x1="20" y1="190" x2="224" y2="190" stroke="#13294d"/>
    <text class="tag" x="20" y="214" fill="#7eb3ff">MIRROR</text>
    <text class="spec" x="20" y="234">survives one disk failure</text>
    <text class="spec" x="20" y="251">in place (mdadm rebuild,</text>
    <text class="spec" x="20" y="268">no restore needed)</text>
  </g>

  <!-- flow arrows -->
  <line x1="328" y1="250" x2="344" y2="250" stroke="#8b949e" stroke-width="1.6" marker-end="url(#arrow)"/>
  <text class="flow" x="318" y="240" text-anchor="middle">restic</text>
  <line x1="588" y1="250" x2="604" y2="250" stroke="#8b949e" stroke-width="1.6" marker-end="url(#arrow)"/>
  <text class="flow" x="578" y="240" text-anchor="middle">copy</text>

  <!-- OUTSIDE the failure domain: git + offsite -->
  <g transform="translate(936,150)">
    <rect x="0" y="0" width="268" height="306" rx="12" fill="#0f1a12" stroke="#34d399" stroke-width="1.6"/>
    <rect x="0" y="0" width="6" height="306" rx="3" fill="#34d399"/>
    <text class="name" x="20" y="32" fill="#5ee0ad">OFF-BOX</text>
    <text class="spec" x="20" y="52">survives the chassis</text>
    <line x1="20" y1="66" x2="248" y2="66" stroke="#123524"/>
    <text class="row" x="20" y="92">▸ Git — desired state</text>
    <text class="spec" x="34" y="110">rebuild config from scratch</text>
    <text class="row" x="20" y="138">▸ Offsite restic (3-2-1) ✓</text>
    <text class="spec" x="34" y="156" fill="#5ee0ad">nightly restic copy → B2/rclone</text>
    <text class="spec" x="34" y="173">backup-offsite.timer</text>
    <line x1="20" y1="190" x2="248" y2="190" stroke="#123524"/>
    <text class="tag" x="20" y="214">MONITORING</text>
    <text class="spec" x="20" y="234">smartd → SMART 199 + media</text>
    <text class="spec" x="20" y="251">mdadm --monitor → degraded</text>
    <text class="spec" x="20" y="268">member alerts by email</text>
  </g>
  <line x1="700" y1="120" x2="700" y2="104" stroke="none"/>
  <line x1="888" y1="300" x2="936" y2="300" stroke="#8b949e" stroke-width="1.4" stroke-dasharray="4 4" marker-end="url(#arrow)"/>
  <text class="flow" x="912" y="292" text-anchor="middle">offsite</text>

  <text class="note" x="62" y="616">Each cold tier is its own RAID 1 mirror — a single bad disk degrades, it doesn't lose data. The NVMe hot tier is the one unmirrored disk, so live data leans on the backups.</text>
  <text class="note" x="62" y="638">Fix the 8 TB mirror's CRC fault at the link (cable / SATA power / port / board) before trusting it — replacing the disks won't help if the cause is the H4's SATA path.</text>
</svg>
